<svg xmlns="http://www.w3.org/2000/svg" width="240.868" height="239.684" viewBox="0 0 240.868 239.684"><defs><style>.a,.b,.c,.d,.g{fill:none;}.a,.b{stroke:#707070;}.a{stroke-width:3px;}.c{stroke:rgba(255,255,255,0.55);stroke-linejoin:round;stroke-width:10px;stroke-dasharray:90 1000;}.c,.d{stroke-linecap:round;}.d{stroke-dasharray:451 999999;}.e{fill:rgba(255,255,255,0.85);font-size:18px;font-family:SFProDisplay-Bold, SF Pro Display;font-weight:700;}.f,.h{stroke:none;}.h{fill:#c60000;}</style></defs><g transform="translate(-3075.785 -1129.891)"><g class="a" transform="translate(3080.785 1138.891)"><ellipse class="f" cx="114.384" cy="110.878" rx="114.384" ry="110.878"/><ellipse class="g" cx="114.384" cy="110.878" rx="112.884" ry="109.378"/></g><g class="b" transform="translate(3135.52 1191.389)"><ellipse class="f" cx="60.479" cy="58.726" rx="60.479" ry="58.726"/><ellipse class="g" cx="60.479" cy="58.726" rx="59.979" ry="58.226"/></g><g transform="translate(3075.785 1129.891)"><g class="c" transform="translate(29.371 27.661)"><ellipse class="f" cx="91.063" cy="92.181" rx="91.063" ry="92.181"/><ellipse class="g" cx="91.063" cy="92.181" rx="86.063" ry="87.181"/></g><g class="d" transform="matrix(0.391, 0.921, -0.921, 0.391, 169.706, 0)"><path class="f" d="M91.063,0c50.293,0,91.063,41.271,91.063,92.181s-40.77,92.181-91.063,92.181S0,143.091,0,92.181,40.77,0,91.063,0Z"/><path class="h" d="M 91.06333923339844 -1.52587890625e-05 C 141.3562316894531 -1.52587890625e-05 182.1266784667969 41.27070617675781 182.1266784667969 92.18067932128906 C 182.1266784667969 143.0906372070313 141.3562316894531 184.3613433837891 91.06333923339844 184.3613433837891 C 40.77044677734375 184.3613433837891 0 143.0906372070313 0 92.18067932128906 C 0 92.18067932128906 0 92.18067932128906 0 92.18067932128906 C 0 92.16792297363281 1.52587890625e-05 92.15566253662109 1.52587890625e-05 92.14289855957031 C 1.52587890625e-05 92.13979339599609 1.52587890625e-05 92.13312530517578 1.52587890625e-05 92.13002014160156 C 3.0517578125e-05 92.12165069580078 3.0517578125e-05 92.11350250244141 3.0517578125e-05 92.10513305664063 C 4.57763671875e-05 92.09891510009766 4.57763671875e-05 92.09571075439453 4.57763671875e-05 92.08950042724609 C 6.103515625e-05 92.08192443847656 6.103515625e-05 92.074951171875 7.62939453125e-05 92.0673828125 C 7.62939453125e-05 92.06116485595703 9.1552734375e-05 92.056640625 9.1552734375e-05 92.05042266845703 C 0.0001068115234375 92.04364776611328 0.0001220703125 92.03643798828125 0.0001220703125 92.0296630859375 C 0.0001373291015625 92.02345275878906 0.000152587890625 92.01772308349609 0.000152587890625 92.01151275634766 C 0.0001678466796875 92.00473785400391 0.00018310546875 91.99871063232422 0.0001983642578125 91.99192810058594 C 0.0001983642578125 91.9857177734375 0.000213623046875 91.98001861572266 0.0002288818359375 91.97380828857422 C 0.000244140625 91.96743774414063 0.0002593994140625 91.96054840087891 0.000274658203125 91.95417022705078 C 0.0002899169921875 91.94795989990234 0.00030517578125 91.94178009033203 0.0003204345703125 91.93556976318359 C 0.000335693359375 91.92919158935547 0.0003509521484375 91.92282867431641 0.0003662109375 91.91645050048828 C 0.000396728515625 91.91024017333984 0.0004119873046875 91.90458679199219 0.00042724609375 91.89837646484375 C 0.0004425048828125 91.8916015625 0.000457763671875 91.88522338867188 0.00048828125 91.87844848632813 C 0.0005035400390625 91.87223815917969 0.000518798828125 91.86665344238281 0.00054931640625 91.86044311523438 C 0.0005645751953125 91.85407257080078 0.0005950927734375 91.84717559814453 0.0006103515625 91.84080505371094 C 0.000640869140625 91.8345947265625 0.0006561279296875 91.82921600341797 0.00067138671875 91.82300567626953 C 0.000701904296875 91.81623077392578 0.000732421875 91.80950927734375 0.000762939453125 91.802734375 C 0.000762939453125 91.79962921142578 0.0008087158203125 91.78866577148438 0.000823974609375 91.78556060791016 C 0.0008544921875 91.77838897705078 0.000885009765625 91.77216339111328 0.00091552734375 91.76499176025391 C 0.0009307861328125 91.76188659667969 0.0009765625 91.75075531005859 0.0009918212890625 91.74765014648438 C 0.0010223388671875 91.74088287353516 0.0010528564453125 91.73416900634766 0.0010833740234375 91.72740173339844 C 0.0011138916015625 91.72119140625 0.0011444091796875 91.71533966064453 0.0011749267578125 91.70912933349609 C 0.0012054443359375 91.70236206054688 0.0012359619140625 91.69651031494141 0.0012664794921875 91.68974304199219 C 0.0012969970703125 91.68353271484375 0.0013275146484375 91.67812347412109 0.0013580322265625 91.67192077636719 C 0.00140380859375 91.66514587402344 0.001434326171875 91.65846252441406 0.0014801025390625 91.65168762207031 C 0.0015106201171875 91.64548492431641 0.0015411376953125 91.6402587890625 0.0015716552734375 91.63405609130859 C 0.001617431640625 91.62728881835938 0.00164794921875 91.62070465087891 0.0016937255859375 91.61393737792969 C 0.0017242431640625 91.60773468017578 0.0017547607421875 91.60277557373047 0.001800537109375 91.59656524658203 C 0.0018310546875 91.59019470214844 0.0018768310546875 91.58282470703125 0.001922607421875 91.57645416259766 C 0.0019683837890625 91.57024383544922 0.0019989013671875 91.56398773193359 0.002044677734375 91.55778503417969 C 0.0020904541015625 91.55141448974609 0.0021209716796875 91.54547882080078 0.002166748046875 91.53910827636719 C 0.0022125244140625 91.53290557861328 0.00225830078125 91.52622222900391 0.0023040771484375 91.52001953125 C 0.0023345947265625 91.51404571533203 0.00238037109375 91.50739288330078 0.0024261474609375 91.50141906738281 C 0.002471923828125 91.49521636962891 0.0025177001953125 91.4886474609375 0.0025634765625 91.48244476318359 C 0.0026092529296875 91.47607421875 0.002655029296875 91.46959686279297 0.0027008056640625 91.46322631835938 C 0.0027618408203125 91.45702362060547 0.0027923583984375 91.4515380859375 0.002838134765625 91.44533538818359 C 0.002899169921875 91.43856811523438 0.0029449462890625 91.43214416503906 0.0030059814453125 91.42537689208984 C 0.0030517578125 91.41917419433594 0.0030975341796875 91.41326904296875 0.003143310546875 91.40706634521484 C 0.003204345703125 91.40029907226563 0.0032501220703125 91.39440155029297 0.0033111572265625 91.38763427734375 C 0.00335693359375 91.38143157958984 0.0034027099609375 91.37617492675781 0.0034637451171875 91.36997222900391 C 0.003509521484375 91.36320495605469 0.003570556640625 91.35671234130859 0.003631591796875 91.34995269775391 C 0.0036773681640625 91.34375 0.0037384033203125 91.33777618408203 0.0037841796875 91.33157348632813 C 0.00384521484375 91.32521057128906 0.00390625 91.31852722167969 0.00396728515625 91.31216430664063 C 0.0040283203125 91.30596160888672 0.0040740966796875 91.30081176757813 0.004119873046875 91.29461669921875 C 0.0041961669921875 91.28784942626953 0.0042572021484375 91.28090667724609 0.0043182373046875 91.27413940429688 C 0.0043792724609375 91.26793670654297 0.004425048828125 91.26262664794922 0.004486083984375 91.25642395019531 C 0.004547119140625 91.25006103515625 0.0046234130859375 91.24264526367188 0.0046844482421875 91.23628234863281 C 0.0047454833984375 91.23007965087891 0.004791259765625 91.22531890869141 0.004852294921875 91.2191162109375 C 0.0049285888671875 91.21235656738281 0.0050048828125 91.20494842529297 0.0050811767578125 91.19818878173828 C 0.0051116943359375 91.19509124755859 0.005218505859375 91.18450164794922 0.0052490234375 91.181396484375 C 0.0053253173828125 91.17424011230469 0.005401611328125 91.16748809814453 0.0054779052734375 91.16033172607422 C 0.0055084228515625 91.15723419189453 0.005615234375 91.14680480957031 0.005645751953125 91.14370727539063 C 0.0057220458984375 91.13694763183594 0.00579833984375 91.13014984130859 0.0058746337890625 91.12339019775391 C 0.005950927734375 91.11719512939453 0.006011962890625 91.11155700683594 0.006072998046875 91.10536193847656 C 0.0061492919921875 91.09859466552734 0.0062255859375 91.09215545654297 0.0063018798828125 91.08539581298828 C 0.0063323974609375 91.08229827880859 0.0064697265625 91.07148742675781 0.006500244140625 91.06838989257813 C 0.0065765380859375 91.06123352050781 0.0066680908203125 91.05388641357422 0.0067596435546875 91.04673004150391 C 0.0068359375 91.04053497314453 0.0068817138671875 91.03662872314453 0.0069580078125 91.03043365478516 C 0.007049560546875 91.02288055419922 0.00714111328125 91.01498413085938 0.007232666015625 91.00743103027344 C 0.0073089599609375 91.00123596191406 0.00732421875 90.99962615966797 0.0074005126953125 90.99342346191406 C 0.0074920654296875 90.98627471923828 0.0075836181640625 90.97871398925781 0.0076751708984375 90.9715576171875 C 0.0077667236328125 90.96536254882813 0.0078125 90.96064758300781 0.007904052734375 90.95445251464844 C 0.0079803466796875 90.948486328125 0.008056640625 90.94186401367188 0.008148193359375 90.93590545654297 C 0.0082244873046875 90.92971038818359 0.00830078125 90.92333984375 0.008392333984375 90.91714477539063 C 0.00848388671875 90.91038513183594 0.008575439453125 90.90338134765625 0.0086669921875 90.89662933349609 C 0.0087432861328125 90.89043426513672 0.0088043212890625 90.88569641113281 0.0088958740234375 90.87950134277344 C 0.009002685546875 90.87155914306641 0.0091094970703125 90.86354827880859 0.0092315673828125 90.85559844970703 C 0.009307861328125 90.84940338134766 0.0093231201171875 90.84841156005859 0.0094146728515625 90.84221649169922 C 0.009521484375 90.83466339111328 0.0096282958984375 90.82687377929688 0.009735107421875 90.81932067871094 C 0.00982666015625 90.81312561035156 0.0098724365234375 90.81012725830078 0.0099639892578125 90.80393981933594 C 0.010498046875 90.76618957519531 0.0110626220703125 90.72849273681641 0.01165771484375 90.69075012207031 C 0.0117034912109375 90.68766021728516 0.011688232421875 90.68903350830078 0.0117340087890625 90.68594360351563 C 0.01190185546875 90.67521667480469 0.0120697021484375 90.66445159912109 0.0122528076171875 90.65372467041016 C 0.0123443603515625 90.64753723144531 0.01239013671875 90.64479827880859 0.0124969482421875 90.63860321044922 C 0.0126190185546875 90.63105773925781 0.0127410888671875 90.62324523925781 0.0128631591796875 90.61569976806641 C 0.012969970703125 90.60950469970703 0.013031005859375 90.60615539550781 0.01312255859375 90.59996795654297 C 0.01324462890625 90.59281921386719 0.01336669921875 90.58578491210938 0.01348876953125 90.57863616943359 C 0.013580322265625 90.57244873046875 0.013671875 90.56788635253906 0.013763427734375 90.56169891357422 C 0.013885498046875 90.55455017089844 0.014007568359375 90.54739379882813 0.014129638671875 90.54024505615234 C 0.0142364501953125 90.5340576171875 0.0142974853515625 90.53096008300781 0.014404296875 90.52477264404297 C 0.0145263671875 90.51762390136719 0.0146636962890625 90.51032257080078 0.0147857666015625 90.503173828125 C 0.014892578125 90.49698638916016 0.0149688720703125 90.49289703369141 0.01507568359375 90.48670959472656 C 0.0152130126953125 90.47916412353516 0.0153350830078125 90.47230529785156 0.015472412109375 90.46475982666016 C 0.0155792236328125 90.45857238769531 0.015625 90.45587921142578 0.0157470703125 90.44969177246094 C 0.0158843994140625 90.44214630126953 0.0160064697265625 90.43519592285156 0.016143798828125 90.42765808105469 C 0.0162506103515625 90.42147064208984 0.016326904296875 90.41793060302734 0.0164337158203125 90.4117431640625 C 0.0165863037109375 90.40420532226563 0.0167236328125 90.39682769775391 0.0168609619140625 90.3892822265625 C 0.0169219970703125 90.38619232177734 0.01708984375 90.37694549560547 0.01715087890625 90.37384796142578 C 0.0172882080078125 90.36670684814453 0.017425537109375 90.35977172851563 0.0175628662109375 90.35262298583984 C 0.017608642578125 90.34953308105469 0.0178375244140625 90.33807373046875 0.0178985595703125 90.33497619628906 C 0.018035888671875 90.32823181152344 0.018157958984375 90.32131958007813 0.0182952880859375 90.31456756591797 C 0.0184173583984375 90.30838775634766 0.0185089111328125 90.30356597900391 0.0186309814453125 90.29737854003906 C 0.018768310546875 90.29063415527344 0.018890380859375 90.2841796875 0.0190277099609375 90.27742767333984 C 0.0191497802734375 90.27124786376953 0.019256591796875 90.26612854003906 0.019378662109375 90.25994873046875 C 0.0195159912109375 90.25320434570313 0.0196685791015625 90.24569702148438 0.019805908203125 90.23895263671875 C 0.019927978515625 90.23276519775391 0.02001953125 90.22890472412109 0.0201416015625 90.22271728515625 C 0.0202789306640625 90.21597290039063 0.0204315185546875 90.20853424072266 0.02056884765625 90.20178985595703 C 0.0207061767578125 90.19560241699219 0.0207977294921875 90.19138336181641 0.0209197998046875 90.18520355224609 C 0.021087646484375 90.17766571044922 0.0212249755859375 90.17079162597656 0.0213775634765625 90.16325378417969 C 0.021514892578125 90.15707397460938 0.021575927734375 90.15397644042969 0.0217132568359375 90.14779663085938 C 0.0218658447265625 90.14065551757813 0.0220184326171875 90.13347625732422 0.0221710205078125 90.12633514404297 C 0.022308349609375 90.12014770507813 0.02239990234375 90.1160888671875 0.0225372314453125 90.10990142822266 C 0.0226898193359375 90.10276794433594 0.0228424072265625 90.09550476074219 0.02301025390625 90.08836364746094 C 0.02313232421875 90.08218383789063 0.0232391357421875 90.07781982421875 0.02337646484375 90.07164001464844 C 0.0235137939453125 90.06529235839844 0.0236663818359375 90.05817413330078 0.0238189697265625 90.05183410644531 C 0.023956298828125 90.045654296875 0.0240936279296875 90.03965759277344 0.02423095703125 90.03347778320313 C 0.0243682861328125 90.02713775634766 0.0245208740234375 90.02037048339844 0.0246734619140625 90.01403045654297 C 0.024810791015625 90.00785064697266 0.024932861328125 90.00226593017578 0.02508544921875 89.99608612060547 C 0.025238037109375 89.98934173583984 0.0253753662109375 89.98310089111328 0.0255279541015625 89.97635650634766 C 0.0256805419921875 89.97017669677734 0.0258026123046875 89.96499633789063 0.02593994140625 89.95881652832031 C 0.026092529296875 89.95207977294922 0.026275634765625 89.94470977783203 0.02642822265625 89.93797302246094 C 0.026580810546875 89.93179321289063 0.02667236328125 89.92762756347656 0.026824951171875 89.92144775390625 C 0.0269927978515625 89.914306640625 0.0271453857421875 89.90765380859375 0.0273284912109375 89.90052032470703 C 0.0274658203125 89.89434051513672 0.0275726318359375 89.89020538330078 0.0277252197265625 89.88402557373047 C 0.02789306640625 89.87689208984375 0.028076171875 89.86908721923828 0.02825927734375 89.86195373535156 C 0.028411865234375 89.85577392578125 0.028472900390625 89.85289001464844 0.02862548828125 89.84671020507813 C 0.02880859375 89.83917999267578 0.02899169921875 89.83181762695313 0.0291748046875 89.82428741455078 C 0.0292510986328125 89.82119750976563 0.02947998046875 89.81232452392578 0.0295562744140625 89.80923461914063 C 0.0297393798828125 89.80170440673828 0.0299224853515625 89.79453277587891 0.0301055908203125 89.78700256347656 C 0.0301971435546875 89.78391265869141 0.0304412841796875 89.77377319335938 0.030517578125 89.77068328857422 C 0.0306854248046875 89.76434326171875 0.030853271484375 89.75755310058594 0.0310211181640625 89.75121307373047 C 0.0311737060546875 89.74503326416016 0.0313262939453125 89.73907470703125 0.031494140625 89.73289489746094 C 0.0316619873046875 89.72615814208984 0.031829833984375 89.71949768066406 0.032012939453125 89.71276092529297 C 0.0320892333984375 89.70967864990234 0.032379150390625 89.69873046875 0.0324554443359375 89.69564056396484 C 0.0326385498046875 89.68850708007813 0.0328216552734375 89.68184661865234 0.0330047607421875 89.67471313476563 C 0.0330810546875 89.671630859375 0.033355712890625 89.66145324707031 0.0334320068359375 89.65836334228516 C 0.0336456298828125 89.65044403076172 0.033843994140625 89.643310546875 0.0340576171875 89.63539123535156 C 0.0341339111328125 89.63230133056641 0.0343475341796875 89.62419891357422 0.0344390869140625 89.62111663818359 C 0.0346527099609375 89.61318969726563 0.03485107421875 89.60547637939453 0.0350799560546875 89.59754943847656 C 0.035247802734375 89.59137725830078 0.0352935791015625 89.58963012695313 0.03546142578125 89.58345794677734 C 0.0356903076171875 89.57474517822266 0.0359039306640625 89.5670166015625 0.0361480712890625 89.55830383300781 C 0.03631591796875 89.5521240234375 0.03631591796875 89.55234527587891 0.0364837646484375 89.54617309570313 C 0.0367279052734375 89.53746032714844 0.0369720458984375 89.52876281738281 0.0372161865234375 89.52005004882813 C 0.037384033203125 89.51387786865234 0.037353515625 89.51470184326172 0.03753662109375 89.50852966308594 C 0.03778076171875 89.49982452392578 0.03802490234375 89.49123382568359 0.03826904296875 89.48252105712891 C 0.0384368896484375 89.47634887695313 0.0384368896484375 89.47679138183594 0.038604736328125 89.47061920166016 C 0.038848876953125 89.46190643310547 0.0390777587890625 89.45414733886719 0.0393218994140625 89.4454345703125 C 0.0395050048828125 89.43927001953125 0.0395050048828125 89.43919372558594 0.0396881103515625 89.43302154541016 C 0.0399932861328125 89.42233276367188 0.0402984619140625 89.41193389892578 0.040618896484375 89.4012451171875 C 0.0406951904296875 89.39815521240234 0.040679931640625 89.39894104003906 0.040771484375 89.39585113525391 C 0.0426177978515625 89.33251190185547 0.0445404052734375 89.26953125 0.0465240478515625 89.20622253417969 C 0.0465240478515625 89.20622253417969 0.0465240478515625 89.20611572265625 0.0465240478515625 89.20611572265625 C 0.046905517578125 89.19384765625 0.0472869873046875 89.18149566650391 0.0476837158203125 89.16923522949219 C 0.0477752685546875 89.16615295410156 0.047882080078125 89.16284942626953 0.0479888916015625 89.15976715087891 C 0.0482940673828125 89.1502685546875 0.0485687255859375 89.14149475097656 0.0488739013671875 89.13200378417969 C 0.049072265625 89.12583923339844 0.0490875244140625 89.12533569335938 0.049285888671875 89.11917114257813 C 0.0495452880859375 89.11086273193359 0.0498199462890625 89.10260772705078 0.0500946044921875 89.09429931640625 C 0.05029296875 89.088134765625 0.050262451171875 89.08905792236328 0.0504608154296875 89.08289337158203 C 0.050750732421875 89.07419586181641 0.0510406494140625 89.06497955322266 0.05133056640625 89.05628204345703 C 0.0514373779296875 89.05319976806641 0.051605224609375 89.04812622070313 0.05169677734375 89.0450439453125 C 0.0519866943359375 89.03634643554688 0.052276611328125 89.02790832519531 0.0525665283203125 89.01921081542969 C 0.0526580810546875 89.01612854003906 0.0529022216796875 89.00880432128906 0.053009033203125 89.00572204589844 C 0.0532684326171875 88.99781799316406 0.0535430908203125 88.98976898193359 0.053802490234375 88.98185729980469 C 0.0539093017578125 88.97877502441406 0.0541839599609375 88.97088623046875 0.054290771484375 88.96780395507813 C 0.0545501708984375 88.95989990234375 0.054840087890625 88.95151519775391 0.0550994873046875 88.94361114501953 C 0.055206298828125 88.94052886962891 0.0554046630859375 88.93490600585938 0.055511474609375 88.93182373046875 C 0.0558013916015625 88.92312622070313 0.05609130859375 88.91497802734375 0.0563812255859375 88.90628051757813 C 0.056488037109375 88.9031982421875 0.0567626953125 88.89549255371094 0.0568695068359375 88.89241027832031 C 0.0571441650390625 88.88450622558594 0.057403564453125 88.87706756591797 0.05767822265625 88.86915588378906 C 0.0577850341796875 88.86607360839844 0.058074951171875 88.85781097412109 0.0581817626953125 88.85472869873047 C 0.0584564208984375 88.84681701660156 0.0587158203125 88.83963012695313 0.058990478515625 88.83172607421875 C 0.0590972900390625 88.82864379882813 0.059417724609375 88.81973266601563 0.0595245361328125 88.81665802001953 C 0.0597991943359375 88.80875396728516 0.06005859375 88.80153656005859 0.060333251953125 88.79363250732422 C 0.060455322265625 88.79055023193359 0.060699462890625 88.78368377685547 0.0608062744140625 88.78060150146484 C 0.06109619140625 88.77230072021484 0.0614013671875 88.76404571533203 0.0616912841796875 88.75574493408203 C 0.0618133544921875 88.75267028808594 0.06207275390625 88.74540710449219 0.0621795654296875 88.74232482910156 C 0.062469482421875 88.73442077636719 0.062744140625 88.72683715820313 0.0630340576171875 88.71894073486328 C 0.063262939453125 88.71277618408203 0.0633544921875 88.71023559570313 0.0635833740234375 88.70407867431641 C 0.0638580322265625 88.69657135009766 0.064117431640625 88.68925476074219 0.06439208984375 88.68174743652344 C 0.0646209716796875 88.67559051513672 0.0647430419921875 88.67246246337891 0.064971923828125 88.66630554199219 C 0.06524658203125 88.65879821777344 0.0655364990234375 88.65095520019531 0.0658111572265625 88.64344787597656 C 0.0660400390625 88.63729095458984 0.0660858154296875 88.63613891601563 0.066314697265625 88.62998199462891 C 0.066619873046875 88.62207794189453 0.0669403076171875 88.61339569091797 0.0672454833984375 88.60549163818359 C 0.067474365234375 88.59933471679688 0.0675201416015625 88.59810638427734 0.0677490234375 88.59194946289063 C 0.06805419921875 88.58404541015625 0.0683441162109375 88.57646942138672 0.068634033203125 88.56857299804688 C 0.068878173828125 88.56241607666016 0.0689544677734375 88.56020355224609 0.0691986083984375 88.55404663085938 C 0.0694580078125 88.54694366455078 0.06976318359375 88.53909301757813 0.070037841796875 88.531982421875 C 0.0702667236328125 88.52582550048828 0.0704345703125 88.52184295654297 0.0706634521484375 88.51568603515625 C 0.070953369140625 88.50818634033203 0.0712432861328125 88.50084686279297 0.071533203125 88.49333953857422 C 0.07177734375 88.4871826171875 0.0718231201171875 88.48585510253906 0.0720672607421875 88.47969818115234 C 0.0723724365234375 88.4718017578125 0.07269287109375 88.46346282958984 0.0730133056640625 88.45556640625 C 0.0731353759765625 88.45249176025391 0.0734405517578125 88.44448089599609 0.0735626220703125 88.44139862060547 C 0.0738677978515625 88.43350219726563 0.0741729736328125 88.42610168457031 0.0744781494140625 88.41820526123047 C 0.0746002197265625 88.41513061523438 0.0749053955078125 88.40741729736328 0.0750274658203125 88.40433502197266 C 0.075347900390625 88.39643859863281 0.075653076171875 88.38892364501953 0.075958251953125 88.38102722167969 C 0.076080322265625 88.37795257568359 0.0764312744140625 88.36920166015625 0.0765533447265625 88.36612701416016 C 0.0768585205078125 88.35862731933594 0.07720947265625 88.35012054443359 0.0775146484375 88.34262084960938 C 0.07763671875 88.33953857421875 0.077911376953125 88.33277893066406 0.078033447265625 88.32970428466797 C 0.078369140625 88.32141876220703 0.078704833984375 88.31300354003906 0.0790557861328125 88.30471801757813 C 0.0791778564453125 88.30164337158203 0.0794525146484375 88.29470062255859 0.07958984375 88.2916259765625 C 0.079925537109375 88.28333282470703 0.0802459716796875 88.27546691894531 0.080596923828125 88.26717376708984 C 0.080718994140625 88.26409912109375 0.08099365234375 88.25745391845703 0.08111572265625 88.25437927246094 C 0.081451416015625 88.24648284912109 0.0817718505859375 88.23867034912109 0.0821075439453125 88.23077392578125 C 0.0822296142578125 88.22769927978516 0.08258056640625 88.21929931640625 0.08270263671875 88.21621704101563 C 0.08306884765625 88.20753479003906 0.0834197998046875 88.19933319091797 0.0837860107421875 88.19065093994141 C 0.0839080810546875 88.18757629394531 0.0841064453125 88.18304443359375 0.084228515625 88.17996978759766 C 0.084625244140625 88.17049407958984 0.0850372314453125 88.16078948974609 0.08544921875 88.15131378173828 C 0.0855712890625 88.14823913574219 0.085693359375 88.14544677734375 0.0858306884765625 88.14237213134766 C 0.0862579345703125 88.13211059570313 0.0866546630859375 88.12286376953125 0.08709716796875 88.11260223388672 C 0.0872344970703125 88.10952758789063 0.0872955322265625 88.10809326171875 0.0874176025390625 88.10501861572266 C 0.087860107421875 88.09475708007813 0.0883026123046875 88.08456420898438 0.0887451171875 88.07431030273438 C 0.0888824462890625 88.07123565673828 0.0889129638671875 88.07047271728516 0.08905029296875 88.06739807128906 C 0.093414306640625 87.96681213378906 0.0979156494140625 87.86658477783203 0.10260009765625 87.76608276367188 C 0.1027374267578125 87.76300811767578 0.1026611328125 87.76478576660156 0.1027984619140625 87.76171112060547 C 0.103912353515625 87.73806762695313 0.1049957275390625 87.71468353271484 0.1061248779296875 87.69104766845703 C 0.10626220703125 87.68797302246094 0.1063232421875 87.686767578125 0.106475830078125 87.68370056152344 C 0.106964111328125 87.67345428466797 0.1074371337890625 87.66338348388672 0.1079254150390625 87.65313720703125 C 0.1079254150390625 87.65313720703125 0.1082611083984375 87.64616394042969 0.1082611083984375 87.64616394042969 C 0.108734130859375 87.63631439208984 0.1092071533203125 87.62637329101563 0.10968017578125 87.61652374267578 C 0.109832763671875 87.61345672607422 0.1100311279296875 87.60939025878906 0.1101837158203125 87.6063232421875 C 0.110626220703125 87.59687042236328 0.1110992431640625 87.58721923828125 0.1115570068359375 87.57776641845703 C 0.1115570068359375 87.57776641845703 0.1118621826171875 87.57138061523438 0.1118621826171875 87.57138061523438 C 0.11236572265625 87.56114196777344 0.11285400390625 87.55126953125 0.1133575439453125 87.54103088378906 C 0.113494873046875 87.5379638671875 0.1136474609375 87.53507995605469 0.113800048828125 87.53200531005859 C 0.1142730712890625 87.52216339111328 0.1147613525390625 87.51233673095703 0.1152496337890625 87.50248718261719 C 0.1154022216796875 87.49942016601563 0.1154022216796875 87.49917602539063 0.1155548095703125 87.49610900878906 C 0.1160736083984375 87.48587036132813 0.1165618896484375 87.47595977783203 0.1170654296875 87.46572113037109 C 0.117218017578125 87.462646484375 0.1173553466796875 87.45991516113281 0.1175079345703125 87.45684814453125 C 0.1179962158203125 87.44700622558594 0.1184539794921875 87.4378662109375 0.11895751953125 87.42801666259766 C 0.119110107421875 87.42494964599609 0.1192626953125 87.42182159423828 0.119415283203125 87.41874694824219 C 0.119873046875 87.40969085693359 0.120330810546875 87.40069580078125 0.12078857421875 87.39163970947266 C 0.120941162109375 87.38857269287109 0.1212310791015625 87.38287353515625 0.1213836669921875 87.37980651855469 C 0.121826171875 87.37114715576172 0.1222686767578125 87.36248016357422 0.122711181640625 87.35382080078125 C 0.12286376953125 87.35075378417969 0.123138427734375 87.34525299072266 0.123291015625 87.34218597412109 C 0.12371826171875 87.33391571044922 0.1241455078125 87.32569885253906 0.12457275390625 87.31743621826172 C 0.124725341796875 87.31436920166016 0.1251220703125 87.30673980712891 0.125274658203125 87.30367279052734 C 0.1256866455078125 87.29579925537109 0.1261138916015625 87.28743743896484 0.1265106201171875 87.27956390380859 C 0.1268310546875 87.27342987060547 0.1268768310546875 87.27260589599609 0.127197265625 87.26647186279297 C 0.12762451171875 87.25820922851563 0.128021240234375 87.25048828125 0.1284637451171875 87.24222564697266 C 0.1287841796875 87.23609161376953 0.1287841796875 87.23582458496094 0.129119873046875 87.22969055175781 C 0.1295623779296875 87.22103118896484 0.1300201416015625 87.21223449707031 0.1304779052734375 87.20357513427734 C 0.13079833984375 87.19744110107422 0.1307373046875 87.19877624511719 0.1310577392578125 87.19264221191406 C 0.1315155029296875 87.18398284912109 0.1319580078125 87.17567443847656 0.132415771484375 87.16701507568359 C 0.1327362060546875 87.160888671875 0.132720947265625 87.16103363037109 0.133056640625 87.15489959716797 C 0.133514404296875 87.14624786376953 0.1339874267578125 87.13722991943359 0.13446044921875 87.12857055664063 C 0.134613037109375 87.12551116943359 0.1348724365234375 87.1207275390625 0.135040283203125 87.11766052246094 C 0.135498046875 87.10900115966797 0.135955810546875 87.10055541992188 0.13641357421875 87.09190368652344 C 0.1365814208984375 87.08883666992188 0.1368865966796875 87.08313751220703 0.137054443359375 87.08007049560547 C 0.137542724609375 87.07102203369141 0.1380157470703125 87.06230926513672 0.1385040283203125 87.05326843261719 C 0.138671875 87.05020141601563 0.138885498046875 87.04616546630859 0.1390533447265625 87.04309844970703 C 0.1395263671875 87.03444671630859 0.1400299072265625 87.02518463134766 0.1405029296875 87.01653289794922 C 0.1406707763671875 87.01346588134766 0.1409454345703125 87.00843048095703 0.14111328125 87.00537109375 C 0.1416015625 86.99632263183594 0.1421051025390625 86.98712921142578 0.142608642578125 86.97808837890625 C 0.1427764892578125 86.97502136230469 0.142974853515625 86.97125244140625 0.1431427001953125 86.96818542480469 C 0.143646240234375 86.95914459228516 0.1441650390625 86.94978332519531 0.1446685791015625 86.94074249267578 C 0.14483642578125 86.93767547607422 0.1450347900390625 86.93397521972656 0.14520263671875 86.93091583251953 C 0.1457366943359375 86.92147827148438 0.1462860107421875 86.91146087646484 0.146820068359375 86.90202331542969 C 0.1469879150390625 86.89896392822266 0.1471099853515625 86.89682006835938 0.14727783203125 86.89375305175781 C 0.1478271484375 86.88392639160156 0.1483612060546875 86.87443542480469 0.1489105224609375 86.86460113525391 C 0.149078369140625 86.86154174804688 0.149200439453125 86.85938262939453 0.1493682861328125 86.85631561279297 C 0.149932861328125 86.84648895263672 0.1505126953125 86.83604431152344 0.1510772705078125 86.82621765136719 C 0.1512451171875 86.82315826416016 0.1513214111328125 86.82196807861328 0.1514892578125 86.81890869140625 C 0.15203857421875 86.80908203125 0.152587890625 86.79942321777344 0.1531524658203125 86.78959655761719 C 0.1533203125 86.78653717041016 0.1534576416015625 86.78421020507813 0.1536407470703125 86.78115081787109 C 0.1541900634765625 86.77132415771484 0.154754638671875 86.76157379150391 0.1553192138671875 86.75175476074219 C 0.1553192138671875 86.75175476074219 0.1557769775390625 86.74367523193359 0.1557769775390625 86.74367523193359 C 0.156341552734375 86.73385620117188 0.156890869140625 86.72446441650391 0.1574554443359375 86.71464538574219 C 0.1574554443359375 86.71464538574219 0.1579437255859375 86.70616912841797 0.1579437255859375 86.70616912841797 C 0.1585845947265625 86.69516754150391 0.1591949462890625 86.68466949462891 0.1598358154296875 86.67366790771484 C 0.1598358154296875 86.67366790771484 0.1600799560546875 86.66929626464844 0.1600799560546875 86.66929626464844 C 0.1607513427734375 86.65790557861328 0.1614532470703125 86.64591979980469 0.162109375 86.63452911376953 C 0.16229248046875 86.63146209716797 0.1620941162109375 86.63496398925781 0.162261962890625 86.63190460205078 C 0.169647216796875 86.50617980957031 0.1772308349609375 86.3809814453125 0.1851043701171875 86.25540161132813 C 0.1851043701171875 86.25540161132813 0.1851654052734375 86.25450897216797 0.1851654052734375 86.25450897216797 C 0.1858978271484375 86.24273681640625 0.186676025390625 86.23035430908203 0.1874237060546875 86.21858215332031 C 0.1874237060546875 86.21858215332031 0.1877593994140625 86.21320343017578 0.1877593994140625 86.21320343017578 C 0.1884307861328125 86.20260620117188 0.1890869140625 86.19212341308594 0.1897735595703125 86.18153381347656 C 0.1899566650390625 86.17847442626953 0.190093994140625 86.17646026611328 0.190277099609375 86.17340087890625 C 0.190887451171875 86.16398620605469 0.1915130615234375 86.15401458740234 0.1921234130859375 86.14459991455078 C 0.1923065185546875 86.14154815673828 0.192535400390625 86.13805389404297 0.1927337646484375 86.13500213623047 C 0.193328857421875 86.12558746337891 0.19390869140625 86.11656188964844 0.19451904296875 86.10714721679688 C 0.1947174072265625 86.10408782958984 0.1949462890625 86.10054016113281 0.1951446533203125 86.09748077392578 C 0.19573974609375 86.08806610107422 0.19635009765625 86.07872772216797 0.19696044921875 86.06931304931641 C 0.1971588134765625 86.06626129150391 0.197265625 86.06450653076172 0.1974639892578125 86.06145477294922 C 0.1981048583984375 86.05164337158203 0.1987762451171875 86.04122924804688 0.1994171142578125 86.03142547607422 C 0.199615478515625 86.02836608886719 0.19964599609375 86.02788543701172 0.1998443603515625 86.02483367919922 C 0.200531005859375 86.01424407958984 0.201202392578125 86.00391387939453 0.201904296875 85.99332427978516 C 0.2021026611328125 85.99026489257813 0.2020263671875 85.99138641357422 0.2022247314453125 85.98832702636719 C 0.2028961181640625 85.97813415527344 0.20361328125 85.96714782714844 0.20428466796875 85.95695495605469 C 0.2044830322265625 85.95390319824219 0.20465087890625 85.95140838623047 0.2048492431640625 85.94835662841797 C 0.205474853515625 85.93894195556641 0.2061004638671875 85.92948150634766 0.20672607421875 85.92006683349609 C 0.2069244384765625 85.91701507568359 0.2071380615234375 85.91382598876953 0.20733642578125 85.91077423095703 C 0.2079620361328125 85.90135955810547 0.208587646484375 85.89189147949219 0.209228515625 85.88248443603516 C 0.2094268798828125 85.87943267822266 0.209625244140625 85.8763427734375 0.2098388671875 85.87328338623047 C 0.2104644775390625 85.86387634277344 0.2111053466796875 85.8543701171875 0.21173095703125 85.84496307373047 C 0.2119293212890625 85.84191131591797 0.21209716796875 85.83956146240234 0.2122955322265625 85.83650970458984 C 0.21295166015625 85.82670593261719 0.2136077880859375 85.817138671875 0.214263916015625 85.80733489990234 C 0.2144622802734375 85.80428314208984 0.2146148681640625 85.80210113525391 0.2148284912109375 85.79904937744141 C 0.215484619140625 85.78924560546875 0.2161865234375 85.77886199951172 0.21685791015625 85.76906585693359 C 0.21685791015625 85.76906585693359 0.21728515625 85.76261138916016 0.21728515625 85.76261138916016 C 0.217987060546875 85.75242614746094 0.2187042236328125 85.74181365966797 0.2194061279296875 85.73162078857422 C 0.2194061279296875 85.73162078857422 0.2198486328125 85.72505187988281 0.2198486328125 85.72505187988281 C 0.220550537109375 85.71486663818359 0.2212677001953125 85.70428466796875 0.2219696044921875 85.69409942626953 C 0.2221832275390625 85.69104766845703 0.222198486328125 85.69075012207031 0.222412109375 85.68769836425781 C 0.223114013671875 85.67751312255859 0.223785400390625 85.66770935058594 0.2244873046875 85.65752410888672 C 0.224700927734375 85.65447235107422 0.2248382568359375 85.65243530273438 0.2250518798828125 85.64938354492188 C 0.2257537841796875 85.63919830322266 0.2264556884765625 85.62907409667969 0.2271575927734375 85.61888885498047 C 0.2273712158203125 85.61583709716797 0.2273406982421875 85.61625671386719 0.2275543212890625 85.61319732666016 C 0.228271484375 85.60301208496094 0.229034423828125 85.59210968017578 0.229736328125 85.58192443847656 C 0.229949951171875 85.57887268066406 0.230010986328125 85.57807922363281 0.230224609375 85.57502746582031 C 0.2309417724609375 85.56484222412109 0.2316131591796875 85.55513763427734 0.232330322265625 85.54495239257813 C 0.2325439453125 85.54190063476563 0.2326202392578125 85.54072570800781 0.23284912109375 85.53767395019531 C 0.2335357666015625 85.52788543701172 0.2342376708984375 85.51785278320313 0.23492431640625 85.50806427001953 C 0.2351531982421875 85.50501251220703 0.23529052734375 85.50286865234375 0.2355194091796875 85.49981689453125 C 0.23626708984375 85.48924255371094 0.2369537353515625 85.47953033447266 0.237701416015625 85.46895599365234 C 0.2379150390625 85.46590423583984 0.237884521484375 85.46643829345703 0.23809814453125 85.46338653564453 C 0.2388458251953125 85.45281219482422 0.23956298828125 85.44285583496094 0.2403106689453125 85.43228149414063 C 0.24053955078125 85.42922973632813 0.2405853271484375 85.42852020263672 0.2407989501953125 85.42546844482422 C 0.241607666015625 85.41411590576172 0.2424468994140625 85.40248870849609 0.2432708740234375 85.39113616943359 C 0.2432708740234375 85.39113616943359 0.2433929443359375 85.38945007324219 0.2433929443359375 85.38945007324219 C 0.2442626953125 85.3773193359375 0.245086669921875 85.36580657958984 0.2459716796875 85.35367584228516 C 0.2459716796875 85.35367584228516 0.2461090087890625 85.35182189941406 0.2461090087890625 85.35182189941406 C 0.2606048583984375 85.15141296386719 0.27569580078125 84.95163726806641 0.2914581298828125 84.7515869140625 C 0.2914581298828125 84.7515869140625 0.2914581298828125 84.75146484375 0.2914581298828125 84.75146484375 C 0.292449951171875 84.73896789550781 0.2934112548828125 84.72669982910156 0.294403076171875 84.71420288085938 C 0.294403076171875 84.71420288085938 0.2944488525390625 84.71358489990234 0.2944488525390625 84.71358489990234 C 0.295440673828125 84.70108795166016 0.2963714599609375 84.68936920166016 0.2973785400390625 84.67687225341797 C 0.2973785400390625 84.67687225341797 0.297454833984375 84.67573547363281 0.297454833984375 84.67573547363281 C 0.298431396484375 84.66361999511719 0.299407958984375 84.65138244628906 0.3003692626953125 84.63927459716797 C 0.3003692626953125 84.63927459716797 0.3004302978515625 84.63847351074219 0.3004302978515625 84.63847351074219 C 0.3014068603515625 84.62636566162109 0.3023223876953125 84.61495971679688 0.3032989501953125 84.60285186767578 C 0.3035430908203125 84.59980773925781 0.3033599853515625 84.60195159912109 0.3036041259765625 84.59890747070313 C 0.3045196533203125 84.58758544921875 0.3054351806640625 84.57621765136719 0.3063507080078125 84.56489562988281 C 0.3065948486328125 84.56185150146484 0.3062896728515625 84.56556701660156 0.306549072265625 84.56253051757813 C 0.3074951171875 84.55081176757813 0.30841064453125 84.53938293457031 0.3093719482421875 84.52767181396484 C 0.3096160888671875 84.52462768554688 0.309356689453125 84.52784729003906 0.309600830078125 84.52481079101563 C 0.310516357421875 84.51348114013672 0.311492919921875 84.50144958496094 0.3124237060546875 84.49012756347656 C 0.3126678466796875 84.48708343505859 0.3123931884765625 84.49054718017578 0.3126373291015625 84.48750305175781 C 0.3135528564453125 84.47618103027344 0.3144989013671875 84.46478271484375 0.3154144287109375 84.45346069335938 C 0.315673828125 84.45042419433594 0.3155364990234375 84.45209503173828 0.3157806396484375 84.44905090332031 C 0.316680908203125 84.43812561035156 0.31756591796875 84.42733001708984 0.3184661865234375 84.41639709472656 C 0.3184661865234375 84.41639709472656 0.318878173828125 84.41130828857422 0.318878173828125 84.41130828857422 C 0.3197479248046875 84.40077209472656 0.3206329345703125 84.39014434814453 0.321502685546875 84.37960815429688 C 0.321502685546875 84.37960815429688 0.3220062255859375 84.37352752685547 0.3220062255859375 84.37352752685547 C 0.322845458984375 84.36338043212891 0.323760986328125 84.35231781005859 0.324615478515625 84.34217071533203 C 0.324615478515625 84.34217071533203 0.325103759765625 84.33618927001953 0.325103759765625 84.33618927001953 C 0.325958251953125 84.32604217529297 0.3268280029296875 84.31556701660156 0.3276824951171875 84.305419921875 C 0.3276824951171875 84.305419921875 0.3282470703125 84.29852294921875 0.3282470703125 84.29852294921875 C 0.3291015625 84.28838348388672 0.33001708984375 84.27751159667969 0.3308563232421875 84.26737213134766 C 0.3308563232421875 84.26737213134766 0.331329345703125 84.2618408203125 0.331329345703125 84.2618408203125 C 0.332244873046875 84.25091552734375 0.3331146240234375 84.24065399169922 0.3340301513671875 84.229736328125 C 0.33428955078125 84.22669219970703 0.3341827392578125 84.22786712646484 0.334442138671875 84.22482299804688 C 0.3353424072265625 84.21429443359375 0.336273193359375 84.2032470703125 0.337158203125 84.19271087646484 C 0.3374176025390625 84.18967437744141 0.3373870849609375 84.19011688232422 0.337646484375 84.18707275390625 C 0.338531494140625 84.17654418945313 0.3394012451171875 84.16641998291016 0.340301513671875 84.1558837890625 C 0.340545654296875 84.15284729003906 0.3405609130859375 84.15280151367188 0.3408203125 84.14975738525391 C 0.3417510986328125 84.13883972167969 0.34271240234375 84.12751007080078 0.3436431884765625 84.11659240722656 C 0.3439178466796875 84.11354827880859 0.343658447265625 84.11652374267578 0.3439178466796875 84.11347961425781 C 0.3449249267578125 84.10178375244141 0.345947265625 84.08980560302734 0.346954345703125 84.07810211181641 C 0.346954345703125 84.07810211181641 0.347076416015625 84.07661437988281 0.347076416015625 84.07661437988281 C 0.348114013671875 84.06452941894531 0.3491363525390625 84.05276489257813 0.3501739501953125 84.04067993164063 C 0.3501739501953125 84.04067993164063 0.350311279296875 84.03919982910156 0.350311279296875 84.03919982910156 C 0.351318359375 84.02750396728516 0.3523406982421875 84.01570892333984 0.353363037109375 84.00401306152344 C 0.353363037109375 84.00401306152344 0.3535614013671875 84.00157165527344 0.3535614013671875 84.00157165527344 C 0.3751983642578125 83.75246429443359 0.397857666015625 83.50316619873047 0.42144775390625 83.254638671875 C 0.42144775390625 83.254638671875 0.4214630126953125 83.25448608398438 0.4214630126953125 83.25448608398438 C 0.425018310546875 83.21714782714844 0.42852783203125 83.18030548095703 0.4321136474609375 83.14297485351563 C 0.4321136474609375 83.14297485351563 0.432220458984375 83.14189910888672 0.432220458984375 83.14189910888672 C 0.433349609375 83.13023376464844 0.434478759765625 83.11842346191406 0.43560791015625 83.10675811767578 C 0.4358978271484375 83.10372924804688 0.435699462890625 83.1058349609375 0.4359893798828125 83.10280609130859 C 0.43707275390625 83.09152984619141 0.438140869140625 83.08055114746094 0.439239501953125 83.06928253173828 C 0.4395294189453125 83.06625366210938 0.439239501953125 83.06918334960938 0.439544677734375 83.06615447998047 C 0.4406280517578125 83.05488586425781 0.4417724609375 83.04317474365234 0.44287109375 83.03189849853516 C 0.44287109375 83.03189849853516 0.443145751953125 83.02895355224609 0.443145751953125 83.02895355224609 C 0.4442901611328125 83.01729583740234 0.445343017578125 83.00653839111328 0.44647216796875 82.99488067626953 C 0.44647216796875 82.99488067626953 0.446807861328125 82.99149322509766 0.446807861328125 82.99149322509766 C 0.4478759765625 82.98061370849609 0.449005126953125 82.96909332275391 0.4500732421875 82.95821380615234 C 0.4500732421875 82.95821380615234 0.45050048828125 82.9537353515625 0.45050048828125 82.9537353515625 C 0.4516143798828125 82.94246673583984 0.4527130126953125 82.93132781982422 0.4538116455078125 82.92005920410156 C 0.4538116455078125 82.92005920410156 0.454071044921875 82.91753387451172 0.454071044921875 82.91753387451172 C 0.4552154541015625 82.90587615966797 0.456390380859375 82.89402008056641 0.4575347900390625 82.88236236572266 C 0.4575347900390625 82.88236236572266 0.4577178955078125 82.880615234375 0.4577178955078125 82.880615234375 C 0.4588623046875 82.86896514892578 0.4600830078125 82.85672760009766 0.46124267578125 82.84507751464844 C 0.46124267578125 82.84507751464844 0.4614105224609375 82.84339904785156 0.4614105224609375 82.84339904785156 C 0.4625244140625 82.83213806152344 0.4637298583984375 82.82000732421875 0.4648590087890625 82.80873870849609 C 0.4651641845703125 82.80571746826172 0.464874267578125 82.80854034423828 0.465179443359375 82.80551147460938 C 0.4663848876953125 82.79347229003906 0.467529296875 82.781982421875 0.4687347412109375 82.76994323730469 C 0.4690399169921875 82.76692199707031 0.4684906005859375 82.77236938476563 0.4687957763671875 82.76934051513672 C 0.47003173828125 82.75691223144531 0.4712371826171875 82.74496459960938 0.4724884033203125 82.7325439453125 C 0.4724884033203125 82.7325439453125 0.4725341796875 82.73213195800781 0.4725341796875 82.73213195800781 C 0.473785400390625 82.71971130371094 0.475006103515625 82.70751190185547 0.47625732421875 82.69509124755859 C 0.47625732421875 82.69509124755859 0.4762725830078125 82.69496917724609 0.4762725830078125 82.69496917724609 C 0.4774932861328125 82.68292999267578 0.4787139892578125 82.67082977294922 0.4799346923828125 82.65879821777344 C 0.4799346923828125 82.65879821777344 0.4800872802734375 82.65724945068359 0.4800872802734375 82.65724945068359 C 0.482574462890625 82.63278961181641 0.4850311279296875 82.60861206054688 0.4875335693359375 82.58415985107422 C 0.4875335693359375 82.58415985107422 0.4876708984375 82.58285522460938 0.4876708984375 82.58285522460938 C 0.4889373779296875 82.5704345703125 0.4901580810546875 82.55851745605469 0.491424560546875 82.54610443115234 C 0.491424560546875 82.54610443115234 0.491455078125 82.54590606689453 0.491455078125 82.54590606689453 C 0.515655517578125 82.30995941162109 0.5406951904296875 82.07473754882813 0.566650390625 81.83932495117188 C 0.566650390625 81.83932495117188 0.5668182373046875 81.83788299560547 0.5668182373046875 81.83788299560547 C 0.568145751953125 81.82588195800781 0.5694427490234375 81.81409454345703 0.570770263671875 81.80209350585938 C 0.570770263671875 81.80209350585938 0.570892333984375 81.80092620849609 0.570892333984375 81.80092620849609 C 0.5721893310546875 81.78931427001953 0.5735321044921875 81.77714538574219 0.5748291015625 81.76553344726563 C 0.575164794921875 81.76251983642578 0.5747833251953125 81.76583862304688 0.5751190185546875 81.7628173828125 C 0.576416015625 81.75120544433594 0.577728271484375 81.73936462402344 0.5790252685546875 81.72775268554688 C 0.5793609619140625 81.72473907470703 0.57879638671875 81.72980499267578 0.579132080078125 81.72678375244141 C 0.5804290771484375 81.71517944335938 0.581787109375 81.70297241210938 0.583099365234375 81.69136047363281 C 0.58343505859375 81.68834686279297 0.58306884765625 81.69155120849609 0.583404541015625 81.68852996826172 C 0.584716796875 81.67691802978516 0.5859375 81.666015625 0.5872344970703125 81.65440368652344 C 0.5872344970703125 81.65440368652344 0.58758544921875 81.65126037597656 0.58758544921875 81.65126037597656 C 0.5888519287109375 81.64003753662109 0.5901031494140625 81.62886047363281 0.59136962890625 81.61764526367188 C 0.59136962890625 81.61764526367188 0.5917816162109375 81.61396789550781 0.5917816162109375 81.61396789550781 C 0.593048095703125 81.60274505615234 0.594390869140625 81.59083557128906 0.595672607421875 81.57962036132813 C 0.595672607421875 81.57962036132813 0.595855712890625 81.57788848876953 0.595855712890625 81.57788848876953 C 0.59716796875 81.56627655029297 0.5984954833984375 81.5546875 0.5998077392578125 81.54308319091797 C 0.5998077392578125 81.54308319091797 0.600128173828125 81.54024505615234 0.600128173828125 81.54024505615234 C 0.6013946533203125 81.52902984619141 0.6027069091796875 81.51750183105469 0.6039886474609375 81.50628662109375 C 0.6039886474609375 81.50628662109375 0.6043853759765625 81.50283050537109 0.6043853759765625 81.50283050537109 C 0.605621337890625 81.49200439453125 0.606842041015625 81.48122406005859 0.6080780029296875 81.47039794921875 C 0.6080780029296875 81.47039794921875 0.60870361328125 81.46499633789063 0.60870361328125 81.46499633789063 C 0.6099395751953125 81.45417022705078 0.6111907958984375 81.44330596923828 0.6124267578125 81.43247222900391 C 0.6124267578125 81.43247222900391 0.6128692626953125 81.42865753173828 0.6128692626953125 81.42865753173828 C 0.6141510009765625 81.41744995117188 0.6153717041015625 81.40689849853516 0.6166534423828125 81.39568328857422 C 0.61700439453125 81.39267730712891 0.616790771484375 81.39450836181641 0.6171417236328125 81.39149475097656 C 0.6184234619140625 81.38028717041016 0.61962890625 81.36991882324219 0.6209259033203125 81.35870361328125 C 0.6212615966796875 81.35569000244141 0.6210784912109375 81.35739135742188 0.6214141845703125 81.35437774658203 C 0.6226654052734375 81.34355163574219 0.62384033203125 81.33338928222656 0.6251068115234375 81.32256317138672 C 0.625457763671875 81.31954956054688 0.625396728515625 81.32005310058594 0.6257476806640625 81.31703948974609 C 0.6269989013671875 81.30622100830078 0.6282501220703125 81.29550170898438 0.6295013427734375 81.28467559814453 C 0.629852294921875 81.28166198730469 0.629638671875 81.28347778320313 0.6299896240234375 81.28046417236328 C 0.6313018798828125 81.26925659179688 0.6325531005859375 81.25853729248047 0.63385009765625 81.24732971191406 C 0.63385009765625 81.24732971191406 0.63427734375 81.24364471435547 0.63427734375 81.24364471435547 C 0.635589599609375 81.23243713378906 0.636962890625 81.22072601318359 0.638275146484375 81.20951843261719 C 0.638275146484375 81.20951843261719 0.638580322265625 81.20694732666016 0.638580322265625 81.20694732666016 C 0.639984130859375 81.19496154785156 0.6413726806640625 81.18306732177734 0.642791748046875 81.17108917236328 C 0.642791748046875 81.17108917236328 0.6428680419921875 81.17037963867188 0.6428680419921875 81.17037963867188 C 0.6675872802734375 80.96019744873047 0.692962646484375 80.75046539306641 0.7190704345703125 80.54072570800781 C 0.7190704345703125 80.54072570800781 0.7191162109375 80.54043579101563 0.7191162109375 80.54043579101563 C 0.72064208984375 80.52809906005859 0.72210693359375 80.51636505126953 0.7236480712890625 80.5040283203125 C 0.7236480712890625 80.5040283203125 0.723846435546875 80.50244903564453 0.723846435546875 80.50244903564453 C 0.725341796875 80.49049377441406 0.7267608642578125 80.47916412353516 0.7282562255859375 80.46721649169922 C 0.7282562255859375 80.46721649169922 0.728515625 80.46515655517578 0.728515625 80.46515655517578 C 0.7299652099609375 80.45359802246094 0.7313690185546875 80.44239044189453 0.732818603515625 80.43083190917969 C 0.732818603515625 80.43083190917969 0.73333740234375 80.4267578125 0.73333740234375 80.4267578125 C 0.7347412109375 80.41558074951172 0.7360382080078125 80.40521240234375 0.737457275390625 80.39403533935547 C 0.737823486328125 80.39103698730469 0.7376251220703125 80.39265441894531 0.738006591796875 80.3896484375 C 0.73931884765625 80.37924957275391 0.740692138671875 80.36833190917969 0.74200439453125 80.35793304443359 C 0.7423858642578125 80.35492706298828 0.742462158203125 80.3543701171875 0.7428436279296875 80.35137176513672 C 0.744110107421875 80.34134674072266 0.7454071044921875 80.33107757568359 0.746673583984375 80.32106018066406 C 0.7470550537109375 80.31806182861328 0.747100830078125 80.31771087646484 0.7474822998046875 80.31471252441406 C 0.7487640380859375 80.30469512939453 0.749969482421875 80.29513549804688 0.751251220703125 80.28511810302734 C 0.7516326904296875 80.28211975097656 0.75201416015625 80.27909851074219 0.7523956298828125 80.27610015869141 C 0.7535247802734375 80.26723480224609 0.7547149658203125 80.25785064697266 0.755859375 80.24899291992188 C 0.7562408447265625 80.24599456787109 0.7567596435546875 80.24195098876953 0.75714111328125 80.23895263671875 C 0.758270263671875 80.23009490966797 0.7593536376953125 80.2215576171875 0.760498046875 80.21269989013672 C 0.7608795166015625 80.20969390869141 0.7615203857421875 80.20471954345703 0.76190185546875 80.20172119140625 C 0.763031005859375 80.19286346435547 0.7640838623046875 80.18470764160156 0.765228271484375 80.17584991455078 C 0.7659912109375 80.16984558105469 0.76580810546875 80.17129516601563 0.766571044921875 80.16529083251953 C 0.767669677734375 80.15682220458984 0.7687835693359375 80.14813995361328 0.7698822021484375 80.13967132568359 C 0.7706451416015625 80.1336669921875 0.7706298828125 80.13381195068359 0.7714080810546875 80.12781524658203 C 0.772491455078125 80.11934661865234 0.7735595703125 80.11112213134766 0.774658203125 80.10265350341797 C 0.7754364013671875 80.09664916992188 0.7752532958984375 80.09798431396484 0.776031494140625 80.09197998046875 C 0.7771759033203125 80.0831298828125 0.7782745361328125 80.07471466064453 0.7794189453125 80.06586456298828 C 0.7798004150390625 80.0628662109375 0.7804412841796875 80.05797576904297 0.7808380126953125 80.05497741699219 C 0.781982421875 80.04612731933594 0.7830963134765625 80.03758239746094 0.78424072265625 80.02873229980469 C 0.784637451171875 80.02573394775391 0.785125732421875 80.02195739746094 0.7855072021484375 80.01895141601563 C 0.7866668701171875 80.01010131835938 0.7878265380859375 80.00122833251953 0.788970947265625 79.99237823486328 C 0.78936767578125 79.9893798828125 0.7899932861328125 79.98463439941406 0.790374755859375 79.98163604736328 C 0.7914886474609375 79.97317504882813 0.792694091796875 79.96396636962891 0.793792724609375 79.95550537109375 C 0.794189453125 79.95250701904297 0.7947235107421875 79.94845581054688 0.7951202392578125 79.94545745849609 C 0.7962646484375 79.93660736083984 0.7974395751953125 79.92771148681641 0.7985992431640625 79.91886138916016 C 0.7989959716796875 79.91586303710938 0.799560546875 79.91153717041016 0.799957275390625 79.90853881835938 C 0.8011627197265625 79.89930725097656 0.802398681640625 79.89000701904297 0.8036041259765625 79.88077545166016 C 0.8040008544921875 79.87777709960938 0.80426025390625 79.87580108642578 0.804656982421875 79.872802734375 C 0.805877685546875 79.86356353759766 0.8071441650390625 79.85398864746094 0.8083648681640625 79.84475708007813 C 0.8087615966796875 79.84175872802734 0.8092041015625 79.83836364746094 0.809600830078125 79.83536529541016 C 0.8108673095703125 79.82575225830078 0.812103271484375 79.81642913818359 0.813385009765625 79.80681610107422 C 0.81378173828125 79.80381774902344 0.8139495849609375 79.80250549316406 0.8143463134765625 79.79950714111328 C 0.8156280517578125 79.78989410400391 0.816925048828125 79.78006744384766 0.818206787109375 79.77045440673828 C 0.818603515625 79.7674560546875 0.8188934326171875 79.76535797119141 0.8192901611328125 79.76235961914063 C 0.820556640625 79.75274658203125 0.8218841552734375 79.74286651611328 0.8231658935546875 79.73325347900391 C 0.8231658935546875 79.73325347900391 0.824127197265625 79.72597503662109 0.824127197265625 79.72597503662109 C 0.8253631591796875 79.71674346923828 0.82659912109375 79.70747375488281 0.8278350830078125 79.6982421875 C 0.828643798828125 79.69225311279297 0.8283233642578125 79.69464111328125 0.8291168212890625 79.68865203857422 C 0.8304595947265625 79.67864990234375 0.8319091796875 79.66779327392578 0.833251953125 79.65779876708984 C 0.833251953125 79.65779876708984 0.833892822265625 79.65298461914063 0.833892822265625 79.65298461914063 C 0.835296630859375 79.64260864257813 0.83673095703125 79.63188171386719 0.838134765625 79.62150573730469 C 0.838531494140625 79.61850738525391 0.838470458984375 79.61894989013672 0.8388824462890625 79.61595153808594 C 0.840484619140625 79.60404205322266 0.842071533203125 79.59226226806641 0.8436737060546875 79.58034515380859 C 0.8436737060546875 79.58034515380859 0.84375 79.57980346679688 0.84375 79.57980346679688 C 0.845306396484375 79.56826782226563 0.8468475341796875 79.55690765380859 0.8484039306640625 79.54537963867188 C 0.84881591796875 79.54238128662109 0.848358154296875 79.54570770263672 0.8487701416015625 79.54270935058594 C 0.8587646484375 79.46893310546875 0.868743896484375 79.39583587646484 0.8789215087890625 79.32211303710938 C 0.87933349609375 79.31912231445313 0.87896728515625 79.32170867919922 0.8793792724609375 79.31871795654297 C 0.88092041015625 79.30757904052734 0.8824920654296875 79.29617309570313 0.884033203125 79.28504180908203 C 0.8844451904296875 79.28204345703125 0.883880615234375 79.28619384765625 0.8842926025390625 79.283203125 C 0.8858795166015625 79.27168273925781 0.8873443603515625 79.26118469238281 0.8889312744140625 79.24966430664063 C 0.8897705078125 79.24368286132813 0.8895111083984375 79.24555969238281 0.8903350830078125 79.23957824707031 C 0.8916168212890625 79.23036956787109 0.892791748046875 79.22187805175781 0.894073486328125 79.21266937255859 C 0.8944854736328125 79.20967864990234 0.8948974609375 79.206787109375 0.8953094482421875 79.20379638671875 C 0.8965911865234375 79.19458770751953 0.8978118896484375 79.18581390380859 0.8990936279296875 79.17660522460938 C 0.899505615234375 79.17361450195313 0.9002227783203125 79.16857147216797 0.900634765625 79.16558074951172 C 0.9018096923828125 79.15714263916016 0.9029998779296875 79.14864349365234 0.9041748046875 79.14019775390625 C 0.90460205078125 79.13720703125 0.9056396484375 79.12973022460938 0.90606689453125 79.12673950195313 C 0.9070892333984375 79.11945343017578 0.9080810546875 79.11232757568359 0.9091033935546875 79.10503387451172 C 0.9095306396484375 79.10204315185547 0.9109954833984375 79.09158325195313 0.9114227294921875 79.08860015869141 C 0.912384033203125 79.08168792724609 0.9133453369140625 79.07485961914063 0.9143218994140625 79.06795501708984 C 0.91473388671875 79.06496429443359 0.916015625 79.05591583251953 0.9164276123046875 79.05292510986328 C 0.9174652099609375 79.04563903808594 0.9183349609375 79.03936767578125 0.91937255859375 79.03208160400391 C 0.9197998046875 79.02909088134766 0.9212646484375 79.01869964599609 0.9216766357421875 79.01570892333984 C 0.922607421875 79.00919342041016 0.923614501953125 79.00205993652344 0.924530029296875 78.99554443359375 C 0.925384521484375 78.98956298828125 0.926116943359375 78.98433685302734 0.926971435546875 78.97836303710938 C 0.9278411865234375 78.97222137451172 0.92864990234375 78.96650695800781 0.9295196533203125 78.96037292480469 C 0.93035888671875 78.95439147949219 0.931365966796875 78.94734191894531 0.932220458984375 78.94136810302734 C 0.9330902099609375 78.93523406982422 0.9339141845703125 78.92938232421875 0.934783935546875 78.92324829101563 C 0.935638427734375 78.91727447509766 0.93646240234375 78.91147613525391 0.93731689453125 78.90550231933594 C 0.938140869140625 78.89974975585938 0.9390716552734375 78.89316558837891 0.9398956298828125 78.88741302490234 C 0.9407501220703125 78.88143920898438 0.941619873046875 78.87532806396484 0.942474365234375 78.86935424804688 C 0.9434051513671875 78.86283874511719 0.9442901611328125 78.85666656494141 0.945220947265625 78.85015106201172 C 0.946075439453125 78.84417724609375 0.94677734375 78.83925628662109 0.9476318359375 78.83328247070313 C 0.948577880859375 78.82676696777344 0.9493865966796875 78.82111358642578 0.9503173828125 78.81459808349609 C 0.951171875 78.80862426757813 0.9520721435546875 78.80235290527344 0.9529266357421875 78.79637908935547 C 0.9538116455078125 78.79024505615234 0.9546966552734375 78.78411102294922 0.9555816650390625 78.77797698974609 C 0.9564361572265625 78.77200317382813 0.9572601318359375 78.76627349853516 0.9581298828125 78.76030731201172 C 0.9589996337890625 78.75417327880859 0.9599456787109375 78.74769592285156 0.9608306884765625 78.74156188964844 C 0.9616851806640625 78.73558807373047 0.962432861328125 78.73047637939453 0.963287353515625 78.72450256347656 C 0.9642333984375 78.71798706054688 0.9652252197265625 78.71109008789063 0.9661712646484375 78.70458221435547 C 0.9670257568359375 78.6986083984375 0.967742919921875 78.69371032714844 0.9686126708984375 78.687744140625 C 0.9694976806640625 78.68161010742188 0.9703369140625 78.67578125 0.9712371826171875 78.66965484619141 C 0.9720916748046875 78.66368103027344 0.97308349609375 78.65685272216797 0.9739532470703125 78.65087890625 C 0.974853515625 78.64475250244141 0.9757080078125 78.63882446289063 0.976593017578125 78.6326904296875 C 0.9774627685546875 78.62672424316406 0.9783172607421875 78.62092590332031 0.97918701171875 78.61495971679688 C 0.980072021484375 78.60882568359375 0.9809417724609375 78.60284423828125 0.981842041015625 78.59671783447266 C 0.9827117919921875 78.59075164794922 0.9835968017578125 78.58464813232422 0.9844818115234375 78.57867431640625 C 0.9853668212890625 78.57254791259766 0.98626708984375 78.56643676757813 0.9871673583984375 78.56031036376953 C 0.988037109375 78.55434417724609 0.989013671875 78.54763793945313 0.9898834228515625 78.54167175292969 C 0.9906768798828125 78.53630828857422 0.9914093017578125 78.53131103515625 0.9922027587890625 78.52594757080078 C 0.993072509765625 78.51998138427734 0.9944000244140625 78.51094055175781 0.995269775390625 78.50497436523438 C 0.996063232421875 78.49961853027344 0.99676513671875 78.49481201171875 0.99755859375 78.48944854736328 C 0.9984283447265625 78.48348236083984 0.9996795654296875 78.47500610351563 1.000564575195313 78.46903991699219 C 1.0013427734375 78.46367645263672 1.002166748046875 78.45817565917969 1.002960205078125 78.45281219482422 C 1.0042724609375 78.44386291503906 1.004547119140625 78.44204711914063 1.005859375 78.43309783935547 C 1.00665283203125 78.427734375 1.007568359375 78.4215087890625 1.00836181640625 78.41615295410156 C 1.009689331054688 78.40720367431641 1.009963989257813 78.40533447265625 1.01129150390625 78.39638519287109 C 1.011917114257813 78.39218139648438 1.012664794921875 78.38709259033203 1.013290405273438 78.38288116455078 C 1.014617919921875 78.37393951416016 1.015472412109375 78.36814117431641 1.016815185546875 78.35919952392578 C 1.017318725585938 78.35575103759766 1.017837524414063 78.35231781005859 1.018341064453125 78.34886932373047 C 1.019668579101563 78.33992004394531 1.020858764648438 78.33195495605469 1.022186279296875 78.32301330566406 C 1.022705078125 78.31956481933594 1.023178100585938 78.31636810302734 1.023696899414063 78.31292724609375 C 1.0250244140625 78.30398559570313 1.026168823242188 78.29631805419922 1.027511596679688 78.28737640380859 C 1.028076171875 78.28354644775391 1.028656005859375 78.27968597412109 1.029220581054688 78.27586364746094 C 1.030563354492188 78.26691436767578 1.031661987304688 78.25955963134766 1.033004760742188 78.25061798095703 C 1.033294677734375 78.24870300292969 1.033706665039063 78.24591064453125 1.03399658203125 78.24399566650391 C 1.03533935546875 78.23505401611328 1.037078857421875 78.22342681884766 1.038421630859375 78.21448516845703 C 1.038650512695313 78.21295166015625 1.0389404296875 78.21105194091797 1.039169311523438 78.20951843261719 C 1.058425903320313 78.08135223388672 1.078598022460938 77.9488525390625 1.098388671875 77.82086181640625 C 1.098388671875 77.82086181640625 1.098388671875 77.82080841064453 1.098388671875 77.82080841064453 C 1.103912353515625 77.78508758544922 1.109222412109375 77.75080871582031 1.114791870117188 77.71510314941406 C 1.114852905273438 77.7147216796875 1.115020751953125 77.71358489990234 1.115081787109375 77.71320343017578 C 1.116928100585938 77.70130157470703 1.118423461914063 77.6917724609375 1.120285034179688 77.67987060546875 C 1.120452880859375 77.67872619628906 1.120513916015625 77.67837524414063 1.120697021484375 77.67723083496094 C 1.122543334960938 77.66532897949219 1.123947143554688 77.65634918212891 1.125808715820313 77.64444732666016 C 1.125991821289063 77.64330291748047 1.126113891601563 77.64253997802734 1.126296997070313 77.64139556884766 C 1.128158569335938 77.62950134277344 1.129470825195313 77.62107086181641 1.13134765625 77.60916900634766 C 1.131576538085938 77.60764312744141 1.131729125976563 77.60674285888672 1.1319580078125 77.60521697998047 C 1.133834838867188 77.59332275390625 1.13482666015625 77.58701324462891 1.136688232421875 77.57511138916016 C 1.137054443359375 77.57282257080078 1.137344360351563 77.5709228515625 1.137710571289063 77.56863403320313 C 1.13958740234375 77.55673980712891 1.140731811523438 77.54942321777344 1.142608642578125 77.53752899169922 C 1.142791748046875 77.53638458251953 1.14300537109375 77.53498077392578 1.1431884765625 77.53383636474609 C 1.145065307617188 77.52194213867188 1.146392822265625 77.5135498046875 1.148269653320313 77.50166320800781 C 1.148452758789063 77.50051879882813 1.148651123046875 77.49929809570313 1.148834228515625 77.49815368652344 C 1.150711059570313 77.48625946044922 1.152267456054688 77.47638702392578 1.154159545898438 77.46450042724609 C 1.154220581054688 77.46411895751953 1.154281616210938 77.46372985839844 1.154342651367188 77.46334838867188 C 1.156219482421875 77.45145416259766 1.157821655273438 77.44142150878906 1.159698486328125 77.42952728271484 C 1.159820556640625 77.42876434326172 1.15997314453125 77.42781829833984 1.16009521484375 77.42705535888672 C 1.1619873046875 77.41516876220703 1.163665771484375 77.40460205078125 1.165557861328125 77.39271545410156 C 1.165618896484375 77.392333984375 1.165557861328125 77.39269256591797 1.165618896484375 77.39231109619141 C 1.167526245117188 77.38042449951172 1.169342041015625 77.36902618408203 1.171234130859375 77.35713958740234 C 1.171295166015625 77.35675811767578 1.1712646484375 77.35694122314453 1.17132568359375 77.35655975341797 C 1.175125122070313 77.33278656005859 1.178787231445313 77.30992889404297 1.182601928710938 77.28615570068359 C 1.182723999023438 77.28539276123047 1.182693481445313 77.28554534912109 1.182815551757813 77.28478240966797 C 1.407882690429688 75.88249969482422 1.663436889648438 74.49465942382813 1.95025634765625 73.11436462402344 C 2.444412231445313 70.75898742675781 4.521942138671875 69.14045715332031 6.8385009765625 69.14045715332031 C 7.17529296875 69.14045715332031 7.517379760742188 69.17471313476563 7.860137939453125 69.24588012695313 C 10.56390380859375 69.80728149414063 12.30061340332031 72.45421600341797 11.73921203613281 75.15794372558594 C 10.58517456054688 80.71598052978516 10 86.44324493408203 10 92.18067932128906 C 10 137.4952392578125 46.3648681640625 174.3613433837891 91.06333923339844 174.3613433837891 C 135.7618103027344 174.3613433837891 172.1266784667969 137.4952392578125 172.1266784667969 92.18067932128906 C 172.1266784667969 46.86607360839844 135.7618103027344 9.999984741210938 91.06333923339844 9.999984741210938 C 88.30190277099609 9.999984741210938 86.06333923339844 7.76141357421875 86.06333923339844 4.999984741210938 C 86.06333923339844 2.238540649414063 88.30190277099609 -1.52587890625e-05 91.06333923339844 -1.52587890625e-05 C 91.06333923339844 -1.52587890625e-05 91.06333923339844 -1.52587890625e-05 91.06333923339844 -1.52587890625e-05 Z"/></g></g><text class="e" transform="translate(3151.785 1214.891)"><tspan x="25.665" y="17">85%</tspan><tspan x="11.282" y="38">Ruby on </tspan><tspan x="24.861" y="59">Rails</tspan></text></g></svg>